<svg width="180" height="180" viewBox="0 0 180 180" fill="none" xmlns="http://www.w3.org/2000/svg">
  <defs>
    <linearGradient id="gradient" x1="0" y1="0" x2="180" y2="180" gradientUnits="userSpaceOnUse">
      <stop offset="0%" stop-color="#3B82F6"/>
      <stop offset="100%" stop-color="#8B5CF6"/>
    </linearGradient>
  </defs>
  <!-- 背景圆角矩形 -->
  <rect width="180" height="180" rx="37" fill="url(#gradient)"/>
  
  <!-- Brain 图标 - Lucide Brain SVG，缩放并居中 -->
  <g transform="translate(30, 30) scale(5)">
    <!-- 左半部分 -->
    <path d="M12 5a3 3 0 1 0-5.997.125 4 4 0 0 0-2.526 5.77 4 4 0 0 0 .556 6.588A4 4 0 1 0 12 18Z" fill="white" opacity="0.95"/>
    <!-- 右半部分 -->
    <path d="M12 5a3 3 0 1 1 5.997.125 4 4 0 0 1 2.526 5.77 4 4 0 0 1-.556 6.588A4 4 0 1 1 12 18Z" fill="white" opacity="0.95"/>
    <!-- 细节线条 -->
    <path d="M15 13a4.5 4.5 0 0 1-3-4 4.5 4.5 0 0 1-3 4" stroke="white" stroke-width="1.5" stroke-linecap="round" stroke-linejoin="round" fill="none" opacity="0.9"/>
    <path d="M17.599 6.5a3 3 0 0 0 .399-1.375" stroke="white" stroke-width="1.5" stroke-linecap="round" stroke-linejoin="round" fill="none" opacity="0.8"/>
    <path d="M6.003 5.125A3 3 0 0 0 6.401 6.5" stroke="white" stroke-width="1.5" stroke-linecap="round" stroke-linejoin="round" fill="none" opacity="0.8"/>
    <path d="M3.477 10.896a4 4 0 0 1 .585-.396" stroke="white" stroke-width="1.5" stroke-linecap="round" stroke-linejoin="round" fill="none" opacity="0.8"/>
    <path d="M19.938 10.5a4 4 0 0 1 .585.396" stroke="white" stroke-width="1.5" stroke-linecap="round" stroke-linejoin="round" fill="none" opacity="0.8"/>
    <path d="M6 18a4 4 0 0 1-1.967-.516" stroke="white" stroke-width="1.5" stroke-linecap="round" stroke-linejoin="round" fill="none" opacity="0.8"/>
    <path d="M19.967 17.484A4 4 0 0 1 18 18" stroke="white" stroke-width="1.5" stroke-linecap="round" stroke-linejoin="round" fill="none" opacity="0.8"/>
  </g>
</svg>
